<svg width="42" height="54" viewBox="0 0 42 54" fill="none" xmlns="http://www.w3.org/2000/svg">
<path d="M0 4.03278C0 1.82364 1.79086 0.0327759 4 0.0327759H37.6709C39.88 0.0327759 41.6709 1.82364 41.6709 4.03278V6.32683C41.6709 8.53597 39.88 10.3268 37.6709 10.3268H32.6611C30.4771 10.3268 28.7066 12.0973 28.7066 14.2813V14.2813C28.7066 16.4653 30.4771 18.2358 32.6611 18.2358H37.6709C39.88 18.2358 41.6709 20.0267 41.6709 22.2358V39.6009C41.6709 41.0265 40.9121 42.3444 39.6792 43.0602L22.8438 52.8341C21.6019 53.555 20.069 53.555 18.8271 52.8341L1.99169 43.0602C0.758772 42.3444 0 41.0265 0 39.6009V4.03278Z" fill="url(#paint0_linear_671_610)"/>
<path d="M23.04 11.2932V21.4231C23.04 22.5277 23.9355 23.4231 25.04 23.4231H31.614C33.0983 23.4231 34.0654 24.9828 33.4055 26.3123L24.4716 44.3118C23.5319 46.205 20.6801 45.5362 20.6801 43.4226V33.2927C20.6801 32.1882 19.7847 31.2927 18.6801 31.2927H12.1061C10.6219 31.2927 9.65477 29.733 10.3146 28.4036L19.2486 10.4041C20.1883 8.51082 23.04 9.17962 23.04 11.2932Z" fill="url(#paint1_linear_671_610)"/>
<defs>
<linearGradient id="paint0_linear_671_610" x1="20.8355" y1="0.0327759" x2="20.8355" y2="54" gradientUnits="userSpaceOnUse">
<stop stop-color="#663399"/>
<stop offset="1" stop-color="#FF00FF"/>
</linearGradient>
<linearGradient id="paint1_linear_671_610" x1="21.8601" y1="2.76526" x2="21.8601" y2="51.9506" gradientUnits="userSpaceOnUse">
<stop stop-color="#FF9500"/>
<stop offset="1" stop-color="#FFFF00"/>
</linearGradient>
</defs>
</svg>
